<svg width="22" height="22" viewBox="0 0 22 22" fill="none" xmlns="http://www.w3.org/2000/svg">
<path fill-rule="evenodd" clip-rule="evenodd" d="M6.88011 2.30786L6.91429 2.30786H7.85715C8.31831 2.30786 8.69215 2.6817 8.69215 3.14286C8.69215 3.60402 8.31831 3.97786 7.85715 3.97786H6.91429C6.24045 3.97786 5.78529 3.97851 5.43412 4.0072C5.0927 4.0351 4.92375 4.08528 4.80897 4.14377C4.52256 4.2897 4.2897 4.52256 4.14377 4.80897C4.08528 4.92375 4.0351 5.0927 4.0072 5.43412C3.97851 5.78529 3.97786 6.24045 3.97786 6.91429V7.85715C3.97786 8.31831 3.60402 8.69215 3.14286 8.69215C2.6817 8.69215 2.30786 8.31831 2.30786 7.85715V6.91429L2.30786 6.88011C2.30785 6.24912 2.30784 5.72538 2.34275 5.29813C2.37908 4.85343 2.45735 4.44024 2.65578 4.0508C2.96183 3.45016 3.45016 2.96183 4.0508 2.65578C4.44024 2.45735 4.85343 2.37908 5.29813 2.34275C5.72538 2.30784 6.24912 2.30785 6.88011 2.30786ZM6.88011 19.6922L6.91429 19.6921H7.85715C8.31831 19.6921 8.69215 19.3183 8.69215 18.8571C8.69215 18.396 8.31831 18.0221 7.85715 18.0221H6.91429C6.24045 18.0221 5.78529 18.0215 5.43412 17.9928C5.0927 17.9649 4.92375 17.9147 4.80897 17.8562C4.52256 17.7103 4.2897 17.4775 4.14377 17.191C4.08528 17.0763 4.0351 16.9073 4.0072 16.5659C3.97851 16.2147 3.97786 15.7596 3.97786 15.0857V14.1429C3.97786 13.6817 3.60402 13.3079 3.14286 13.3079C2.6817 13.3079 2.30786 13.6817 2.30786 14.1429V15.0857L2.30786 15.1199C2.30785 15.7509 2.30784 16.2746 2.34275 16.7019C2.37908 17.1466 2.45735 17.5598 2.65578 17.9492C2.96183 18.5498 3.45016 19.0382 4.0508 19.3442C4.44024 19.5427 4.85343 19.6209 5.29813 19.6573C5.72538 19.6922 6.24912 19.6922 6.88011 19.6922ZM15.0857 2.30786L15.1199 2.30786C15.7509 2.30785 16.2746 2.30784 16.7019 2.34275C17.1466 2.37908 17.5598 2.45735 17.9492 2.65578C18.5498 2.96183 19.0382 3.45016 19.3442 4.0508C19.5427 4.44024 19.6209 4.85343 19.6573 5.29813C19.6922 5.72538 19.6922 6.24912 19.6922 6.88011L19.6921 6.91429V7.85715C19.6921 8.31831 19.3183 8.69215 18.8571 8.69215C18.396 8.69215 18.0221 8.31831 18.0221 7.85715V6.91429C18.0221 6.24045 18.0215 5.78529 17.9928 5.43412C17.9649 5.0927 17.9147 4.92375 17.8562 4.80897C17.7103 4.52256 17.4775 4.2897 17.191 4.14377C17.0763 4.08528 16.9073 4.0351 16.5659 4.0072C16.2147 3.97851 15.7596 3.97786 15.0857 3.97786H14.1429C13.6817 3.97786 13.3079 3.60402 13.3079 3.14286C13.3079 2.6817 13.6817 2.30786 14.1429 2.30786H15.0857ZM15.1199 19.6922L15.0857 19.6921H14.1429C13.6817 19.6921 13.3079 19.3183 13.3079 18.8571C13.3079 18.396 13.6817 18.0221 14.1429 18.0221H15.0857C15.7596 18.0221 16.2147 18.0215 16.5659 17.9928C16.9073 17.9649 17.0763 17.9147 17.191 17.8562C17.4775 17.7103 17.7103 17.4775 17.8562 17.191C17.9147 17.0763 17.9649 16.9073 17.9928 16.5659C18.0215 16.2147 18.0221 15.7596 18.0221 15.0857V14.1429C18.0221 13.6817 18.396 13.3079 18.8571 13.3079C19.3183 13.3079 19.6921 13.6817 19.6921 14.1429V15.0857L19.6922 15.1199C19.6922 15.7509 19.6922 16.2746 19.6573 16.7019C19.6209 17.1466 19.5427 17.5598 19.3442 17.9492C19.0382 18.5498 18.5498 19.0382 17.9492 19.3442C17.5598 19.5427 17.1466 19.6209 16.7019 19.6573C16.2746 19.6922 15.7509 19.6922 15.1199 19.6922ZM6.28603 10.1653C5.82487 10.1653 5.45103 10.5392 5.45103 11.0003C5.45103 11.4615 5.82487 11.8353 6.28603 11.8353H15.7146C16.1758 11.8353 16.5496 11.4615 16.5496 11.0003C16.5496 10.5392 16.1758 10.1653 15.7146 10.1653H6.28603Z" fill="#007AFF"/>
</svg>
