<svg width="24" height="24" viewBox="0 0 24 24" fill="none" xmlns="http://www.w3.org/2000/svg">
<path fill-rule="evenodd" clip-rule="evenodd" d="M6.75298 0.834992L6.79999 0.834993H7.99999C8.6434 0.834993 9.16499 1.35658 9.16499 1.99999C9.16499 2.6434 8.6434 3.16499 7.99999 3.16499H6.79999C5.94069 3.16499 5.36628 3.1659 4.92447 3.202C4.49626 3.23698 4.29618 3.29913 4.16692 3.365C3.82164 3.54092 3.54092 3.82164 3.365 4.16692C3.29913 4.29618 3.23698 4.49626 3.202 4.92447C3.1659 5.36628 3.16499 5.94069 3.16499 6.79999V7.99999C3.16499 8.6434 2.6434 9.16499 1.99999 9.16499C1.35658 9.16499 0.834993 8.6434 0.834993 7.99999V6.79999L0.834992 6.75298C0.834975 5.95292 0.834961 5.28273 0.879734 4.73473C0.926493 4.16243 1.02783 3.62159 1.28895 3.10912C1.68826 2.32543 2.32543 1.68826 3.10912 1.28895C3.62159 1.02783 4.16243 0.926493 4.73473 0.879734C5.28273 0.834961 5.95292 0.834975 6.75298 0.834992ZM6.75298 23.165H6.79999H7.99999C8.6434 23.165 9.16499 22.6434 9.16499 22C9.16499 21.3566 8.6434 20.835 7.99999 20.835H6.79999C5.94069 20.835 5.36628 20.8341 4.92447 20.798C4.49626 20.763 4.29618 20.7009 4.16692 20.635C3.82164 20.4591 3.54092 20.1783 3.365 19.8331C3.29913 19.7038 3.23698 19.5037 3.202 19.0755C3.1659 18.6337 3.16499 18.0593 3.16499 17.2V16C3.16499 15.3566 2.6434 14.835 1.99999 14.835C1.35658 14.835 0.834993 15.3566 0.834993 16V17.2L0.834992 17.247C0.834975 18.0471 0.834961 18.7173 0.879734 19.2653C0.926493 19.8376 1.02783 20.3784 1.28895 20.8909C1.68826 21.6746 2.32543 22.3117 3.10912 22.711C3.62159 22.9722 4.16243 23.0735 4.73473 23.1203C5.28273 23.165 5.95292 23.165 6.75298 23.165ZM17.2 0.834993L17.247 0.834992C18.0471 0.834975 18.7173 0.834961 19.2653 0.879734C19.8376 0.926493 20.3784 1.02783 20.8909 1.28895C21.6746 1.68826 22.3117 2.32543 22.711 3.10912C22.9722 3.62159 23.0735 4.16243 23.1203 4.73473C23.165 5.28273 23.165 5.95292 23.165 6.75298V6.79999V7.99999C23.165 8.6434 22.6434 9.16499 22 9.16499C21.3566 9.16499 20.835 8.6434 20.835 7.99999V6.79999C20.835 5.94069 20.8341 5.36628 20.798 4.92447C20.763 4.49626 20.7009 4.29618 20.635 4.16692C20.4591 3.82164 20.1783 3.54092 19.8331 3.365C19.7038 3.29913 19.5037 3.23698 19.0755 3.202C18.6337 3.1659 18.0593 3.16499 17.2 3.16499H16C15.3566 3.16499 14.835 2.6434 14.835 1.99999C14.835 1.35658 15.3566 0.834993 16 0.834993H17.2ZM17.247 23.165H17.2H16C15.3566 23.165 14.835 22.6434 14.835 22C14.835 21.3566 15.3566 20.835 16 20.835H17.2C18.0593 20.835 18.6337 20.8341 19.0755 20.798C19.5037 20.763 19.7038 20.7009 19.8331 20.635C20.1783 20.4591 20.4591 20.1783 20.635 19.8331C20.7009 19.7038 20.763 19.5037 20.798 19.0755C20.8341 18.6337 20.835 18.0593 20.835 17.2V16C20.835 15.3566 21.3566 14.835 22 14.835C22.6434 14.835 23.165 15.3566 23.165 16V17.2V17.247C23.165 18.0471 23.165 18.7173 23.1203 19.2653C23.0735 19.8376 22.9722 20.3784 22.711 20.8909C22.3117 21.6746 21.6746 22.3117 20.8909 22.711C20.3784 22.9722 19.8376 23.0735 19.2653 23.1203C18.7173 23.165 18.0471 23.165 17.247 23.165ZM6.00038 10.8354C5.35697 10.8354 4.83538 11.357 4.83538 12.0004C4.83538 12.6438 5.35697 13.1654 6.00038 13.1654H18.0004C18.6438 13.1654 19.1654 12.6438 19.1654 12.0004C19.1654 11.357 18.6438 10.8354 18.0004 10.8354H6.00038Z" fill="white"/>
</svg>
